# xmcd
#
# Track frame offsets: 
#        182
#        23012
#        41862
#        58657
#        77555
#        92257
#        127210
#        143405
#        161975
#        181295
#        194795
#        208087
#        233920
#
# Disc length: 3245 seconds
#
# Revision: 3
# Processed by: cddbd v1.5.2PL0 Copyright (c) Steve Scherf et al.
# Submitted via: ExactAudioCopy v0.95b4
#
DISCID=b60cab0d
DTITLE=The Freewheelers - Waitin' For George
DYEAR=1996
DGENRE=Rock
TTITLE0=Best Be On Your Way
TTITLE1=What's The Matter Ruth?
TTITLE2=Mother Nature Lady
TTITLE3=Ghost Of Tchoupitoulas St.
TTITLE4=My Little Friend
TTITLE5=(Chico's Sellin') Maps To The Stars
TTITLE6=Crime Pays
TTITLE7=Walkin' Funny
TTITLE8=About Marie
TTITLE9=Kiss Her For The Punk
TTITLE10=Elevator Man
TTITLE11=Blame
TTITLE12=Let The Music Bring A Smile
EXTD=
EXTT0=
EXTT1=
EXTT2=
EXTT3=
EXTT4=
EXTT5=
EXTT6=
EXTT7=
EXTT8=
EXTT9=
EXTT10=
EXTT11=
EXTT12=
PLAYORDER=
